<svg xmlns="http://www.w3.org/2000/svg" width="716" height="714" viewBox="0 0 716 714" version="1.1"><path d="M 349 235.335 L 341.500 238.610 341.238 276.007 C 340.941 318.221, 341.093 319.419, 348.040 329.823 C 352.383 336.326, 361.104 343.037, 367.824 345.046 C 391.017 351.982, 413.985 338.779, 419.506 315.338 C 420.995 309.014, 421.115 306.723, 420.214 301.876 C 417.553 287.569, 409.315 276.858, 396.259 270.731 C 390.214 267.895, 388.549 267.563, 380.500 267.585 C 374.307 267.602, 370.564 268.099, 368.500 269.178 C 366.850 270.041, 364.488 271.059, 363.250 271.441 L 361 272.135 361 252.067 L 361 232 358.750 232.029 C 357.512 232.046, 353.125 233.533, 349 235.335 M 376.039 287.189 C 374.918 288.392, 374 290.582, 374 292.054 C 374 295.992, 370.502 299.790, 365.696 301.069 C 360.292 302.508, 358 304.611, 358 308.132 C 358 314.673, 367.456 315.796, 369.367 309.482 C 371.503 302.425, 372.511 300.659, 375.420 298.885 C 377.114 297.853, 379.426 297.006, 380.559 297.004 C 385.722 296.994, 388.628 290.628, 385.087 287.087 C 382.386 284.386, 378.610 284.429, 376.039 287.189 M 377.198 302.750 C 376.085 303.712, 374.902 305.442, 374.569 306.593 C 373.750 309.429, 377.426 314, 380.526 314 C 386.030 314, 391 318.863, 391 324.249 C 391 327.460, 393.928 330, 397.629 330 C 401.465 330, 403 328.387, 403 324.357 C 403 321.080, 400.179 318, 397.179 318 C 392.258 318, 387 312.786, 387 307.907 C 387 305.601, 382.774 301, 380.656 301 C 379.867 301, 378.311 301.788, 377.198 302.750 M 389.851 427.208 C 386.860 427.833, 384.186 429.240, 382.351 431.155 L 379.500 434.130 379.220 477.372 L 378.940 520.615 381.250 524.043 C 385.280 530.023, 385.670 530.086, 416.500 529.779 C 444.423 529.501, 444.515 529.493, 450 526.866 C 456.312 523.842, 462.041 518.541, 464.424 513.518 C 466.985 508.122, 467.533 498.345, 465.639 491.831 C 464.076 486.453, 459.461 480.971, 453.434 477.332 C 451.553 476.196, 451.562 476.119, 453.790 474.497 C 460.712 469.459, 463.947 463.078, 463.978 454.399 C 464.033 439.111, 455.746 430.622, 437.660 427.439 C 428.348 425.800, 397.306 425.650, 389.851 427.208 M 405.769 454.980 C 405.495 458.820, 405.487 463.095, 405.752 464.480 L 406.233 467 418.394 467 C 428.176 467, 431.039 466.669, 433.027 465.308 C 436.491 462.938, 436.967 462.020, 436.985 457.684 C 437.017 449.581, 433.835 448, 417.485 448 L 406.269 448 405.769 454.980 M 503 456.947 C 492.345 460.250, 483.445 467.689, 479.127 476.901 C 476.770 481.927, 476.502 483.676, 476.502 494 C 476.502 504.651, 476.713 505.924, 479.364 511.242 C 484.065 520.671, 490.554 526.015, 501.944 529.837 C 515.012 534.223, 536.776 531.746, 544.308 525.016 C 546.856 522.739, 547.333 521.578, 547.333 517.648 C 547.333 509.620, 541.432 505.518, 534.258 508.559 C 529.870 510.420, 517.813 511.563, 512.697 510.603 C 508.446 509.805, 503 505.029, 503 502.099 C 503 500.032, 503.329 500, 524.500 500 C 545.116 500, 546.088 499.912, 548.134 497.866 C 550.032 495.968, 550.204 494.976, 549.694 488.884 C 548.580 475.604, 540.987 464.275, 529.585 458.880 C 524.216 456.340, 522.441 456.012, 514.500 456.087 C 509.550 456.134, 504.375 456.521, 503 456.947 M 565.225 458.004 C 563.424 459.102, 561.511 461.155, 560.975 462.566 C 560.425 464.014, 560 477.524, 560 493.597 C 560 525.861, 560.373 528.005, 566.432 530.536 C 570.706 532.322, 576.646 532.403, 579.970 530.721 C 581.328 530.033, 583.466 527.948, 584.720 526.088 C 586.893 522.863, 587 521.819, 587 503.887 L 587 485.070 590.001 481.651 C 593.190 478.019, 596.695 476.810, 601.363 477.730 C 606.162 478.677, 607 482.433, 607 503 C 607 523.364, 607.757 526.662, 613.190 529.974 C 619.610 533.888, 629.214 531.755, 632.449 525.697 C 633.953 522.880, 634.117 519.589, 633.828 498 L 633.500 473.500 630.500 468.027 C 628.558 464.484, 625.913 461.486, 623 459.527 C 619.018 456.849, 617.510 456.460, 609.902 456.156 C 602.173 455.847, 600.758 456.086, 595.902 458.516 C 592.931 460.004, 589.534 462.106, 588.353 463.188 L 586.205 465.156 584.467 462.213 C 580.807 456.018, 571.737 454.034, 565.225 458.004 M 508.299 475.960 C 505.082 477.921, 502 482.564, 502 485.450 C 502 486.764, 503.832 487, 514.031 487 C 527.409 487, 528.296 486.543, 525.944 480.864 C 523.322 474.536, 514.607 472.113, 508.299 475.960 M 405.534 496.481 C 405.148 500.596, 405.118 505.261, 405.466 506.847 L 406.100 509.732 417.800 509.321 C 433.572 508.767, 435.561 508.373, 437.957 505.328 C 441.583 500.718, 440.136 492.294, 435.343 490.110 C 433.946 489.474, 427.214 489, 419.570 489 L 406.235 489 405.534 496.481 M 560.403 549.757 C 560.809 550.462, 560.533 551.242, 559.774 551.533 C 559.030 551.819, 558.373 553.053, 558.313 554.276 C 558.253 555.499, 558.427 555.919, 558.699 555.208 C 559.057 554.274, 559.551 554.212, 560.482 554.985 C 561.485 555.818, 561.736 555.402, 561.620 553.095 C 561.538 551.469, 561.068 549.769, 560.575 549.319 C 560.064 548.852, 559.990 549.040, 560.403 549.757 M 481.935 553.121 C 481.271 554.363, 481.221 554.982, 481.815 554.614 C 482.373 554.270, 483.031 554.553, 483.278 555.244 C 483.524 555.935, 484.112 556.138, 484.584 555.696 C 485.056 555.253, 484.835 554.516, 484.093 554.057 C 483.351 553.599, 483.053 552.723, 483.431 552.112 C 483.809 551.500, 483.882 551, 483.594 551 C 483.306 551, 482.560 551.954, 481.935 553.121" stroke="none" fill="#6c9574" fill-rule="evenodd"/><path d="M 341.500 197.403 C 313.664 206.239, 288.425 230.165, 277.445 258.127 C 272.557 270.577, 271 279.604, 271 295.500 C 271 312.201, 272.790 321.764, 278.486 335.500 C 294.037 373.001, 321.526 393.269, 363.129 397.908 C 390.481 400.958, 420.420 391.236, 441.778 372.368 C 462.348 354.196, 476 325.562, 476 300.589 C 476 291.829, 474.807 288.641, 470.578 286.104 C 465.393 282.993, 462.235 282.708, 457.633 284.936 C 452.163 287.584, 450.406 290.892, 449.635 300 C 447.063 330.386, 428.941 355.069, 400.811 366.499 C 387.376 371.958, 363.018 372.466, 349.033 367.579 C 327.806 360.162, 309.620 342.492, 302.123 322 C 299.621 315.162, 297 301.347, 297 295 C 297 287.641, 300.597 271.844, 303.964 264.419 C 312.670 245.218, 330.196 229.405, 350 222.882 C 357.126 220.535, 359.489 218.890, 361.602 214.802 C 364.653 208.903, 361.877 200.268, 355.970 197.279 C 352.857 195.704, 346.686 195.757, 341.500 197.403 M 115.202 427.022 C 89.293 433.810, 74.481 454.710, 76.299 481.916 C 78.030 507.828, 92.481 525.170, 116.873 530.611 C 130.626 533.679, 150.880 530.919, 160.087 524.724 C 168.587 519.004, 166.485 504.882, 156.776 502.472 C 154.960 502.022, 151.539 502.664, 146.517 504.398 C 126.886 511.177, 110.466 504.726, 107.072 488.900 C 105.531 481.717, 105.751 472.207, 107.602 465.932 C 109.610 459.127, 115.941 452.633, 122.218 450.939 C 128.790 449.166, 142.621 450.187, 147.710 452.821 C 152.676 455.391, 156.702 455.597, 159.783 453.439 C 164.745 449.964, 166.539 441.415, 163.417 436.129 C 158.099 427.126, 132.941 422.375, 115.202 427.022 M 334.500 426.403 C 326.817 429.794, 326.176 433.255, 326.095 471.809 C 326.030 502.328, 327.035 513.269, 330.530 520.088 C 334.805 528.431, 341.684 531.946, 353.800 531.978 C 366.693 532.012, 371 528.815, 371 519.212 C 371 511.365, 369.951 510, 363.919 510 C 359.933 510, 358.407 509.498, 356.455 507.545 L 354 505.091 353.996 469.795 C 353.993 436.158, 353.898 434.345, 351.974 431.190 C 348.621 425.689, 340.905 423.575, 334.500 426.403 M 183.500 457.556 C 177.104 460.848, 177.047 461.109, 177.022 487.212 C 177.002 508.500, 177.204 511.471, 178.998 516.264 C 182.814 526.463, 191.459 531.941, 203.800 531.978 C 211.402 532.001, 214.590 530.942, 220.715 526.358 L 223.929 523.952 227.388 527.726 C 230.725 531.367, 231.081 531.500, 237.505 531.500 C 243.762 531.500, 244.340 531.303, 247.082 528.234 L 250 524.968 249.985 494.734 C 249.975 472.723, 249.635 463.849, 248.735 462.107 C 245.837 456.491, 235.378 454.252, 229.314 457.950 C 223.992 461.195, 223.602 462.818, 223.175 483.500 C 222.746 504.284, 222.142 506.841, 217.033 509.483 C 213.087 511.523, 209.707 511.393, 206.861 509.090 C 204.544 507.216, 204.491 506.781, 204 485.793 C 203.568 467.301, 203.253 464.029, 201.672 461.620 C 198.281 456.449, 189.477 454.480, 183.500 457.556 M 271.500 456.954 C 270.400 457.409, 268.375 458.991, 267 460.470 L 264.500 463.158 264.242 492.829 C 264.046 515.309, 264.292 523.099, 265.257 524.970 C 268.750 531.750, 279.447 534.195, 286.076 529.728 C 290.866 526.500, 291.833 522.216, 291.923 503.827 C 291.998 488.501, 292.057 488.086, 294.573 485.096 C 297.193 481.982, 300.509 480.733, 309.413 479.506 C 312.893 479.026, 315.152 478.002, 317.163 475.991 C 319.661 473.493, 320 472.423, 320 467.031 C 320 458.919, 317.426 455.995, 310.295 456.010 C 304.417 456.022, 296.311 459.601, 292.938 463.674 L 290.505 466.611 288.880 462.980 C 286.339 457.306, 277.804 454.347, 271.500 456.954 M 457.030 550.421 C 456.456 551.932, 456.190 553.499, 456.440 553.903 C 456.690 554.307, 455.495 554.433, 453.784 554.182 C 450.173 553.652, 448 555.838, 448 560.003 C 448 565.316, 454.539 569.118, 457.026 565.250 C 458.076 563.616, 458.113 563.622, 457.575 565.334 C 457.198 566.533, 457.432 567.024, 458.249 566.753 C 459.084 566.477, 459.598 563.568, 459.793 558.012 C 460.106 549.120, 458.843 545.651, 457.030 550.421 M 507.211 556.644 C 507.441 563.529, 507.851 565.509, 509.222 566.372 C 510.503 567.177, 511.272 567.116, 512.222 566.132 C 513.265 565.052, 513.086 564.529, 511.250 563.283 C 509.283 561.948, 509 560.892, 509 554.878 C 509 550.788, 508.579 548, 507.961 548 C 507.300 548, 507.027 551.147, 507.211 556.644 M 176.496 550.007 C 175.860 551.036, 176.954 551.636, 180.500 552.202 C 182.254 552.482, 182.536 553.414, 182.794 559.792 C 183.170 569.070, 185 568.364, 185 558.941 L 185 552 188 552 C 190 552, 191 551.500, 191 550.500 C 191 549.311, 189.562 549, 184.059 549 C 180.241 549, 176.838 549.453, 176.496 550.007 M 237.408 551.500 C 236.033 553.598, 234.990 554, 230.920 554 C 227.152 554, 225.840 554.431, 225.037 555.931 C 223.904 558.049, 225.927 561, 228.512 561 C 229.266 561, 230.197 561.510, 230.583 562.134 C 231.070 562.922, 230.309 563.126, 228.098 562.801 C 224.290 562.242, 223.083 563.590, 225.650 565.535 C 228.368 567.594, 231.677 567.299, 233.396 564.845 C 235.285 562.148, 233.989 559.286, 230.478 558.405 C 226.964 557.523, 228.139 556.499, 232.655 556.507 L 236.500 556.514 236.805 561.822 C 237.178 568.326, 239.348 568.442, 239.817 561.984 C 240.008 559.355, 240.802 557.127, 241.817 556.373 C 243.376 555.215, 243.353 555.011, 241.500 553.594 C 239.715 552.228, 239.688 552.060, 241.250 552.032 C 243.685 551.988, 243.462 549, 241.023 549 C 239.936 549, 238.309 550.125, 237.408 551.500 M 284.318 557.750 C 284.553 569.057, 286.403 568.874, 286.789 557.506 C 287.025 550.556, 286.809 549, 285.607 549 C 284.411 549, 284.171 550.634, 284.318 557.750 M 329 551.437 C 329 553.452, 328.441 553.928, 325.768 554.187 C 321.863 554.565, 320.022 558.317, 321.575 562.732 C 322.714 565.972, 327.628 568.220, 328.938 566.101 C 329.599 565.030, 329.841 565.023, 330.188 566.064 C 330.425 566.775, 331.153 567.023, 331.809 566.618 C 332.578 566.143, 333 562.892, 333 557.441 C 333 549.667, 332.842 549, 331 549 C 329.547 549, 329 549.667, 329 551.437 M 403.912 549.250 C 403.863 549.388, 403.750 553.026, 403.662 557.335 C 403.555 562.521, 403.919 565.518, 404.738 566.198 C 406.594 567.737, 407.228 565.125, 406.838 557.549 C 406.652 553.945, 406.864 550.997, 407.309 550.998 C 407.754 550.999, 407.840 550.550, 407.500 550 C 406.965 549.134, 404.160 548.548, 403.912 549.250 M 462.142 557.383 C 462.034 562.039, 462.376 566.114, 462.903 566.440 C 464.466 567.406, 464.845 565.850, 465.090 557.461 C 465.277 551.072, 465.029 549.443, 463.831 549.209 C 462.616 548.973, 462.303 550.485, 462.142 557.383 M 480.513 549.979 C 480.180 550.518, 480.362 551.809, 480.919 552.848 C 481.475 553.887, 481.645 555.021, 481.298 555.369 C 480.458 556.209, 480.578 564.508, 481.451 565.920 C 483.018 568.456, 484.060 565.405, 483.837 558.932 C 483.706 555.119, 483.249 552.582, 482.815 553.264 C 482.201 554.232, 482.027 554.222, 482.015 553.219 C 482.007 552.514, 482.672 551.679, 483.494 551.364 C 484.316 551.048, 484.740 550.388, 484.435 549.895 C 483.698 548.702, 481.270 548.754, 480.513 549.979 M 551.688 549.646 C 551.309 550.024, 551 553.339, 551 557.012 C 551 562.234, 551.402 564.054, 552.846 565.361 C 554.788 567.118, 558.988 567.197, 560.235 565.500 C 561.281 564.076, 561.176 555.227, 560.105 554.565 C 558.907 553.824, 558 556.403, 558 560.550 C 558 563.105, 557.642 563.800, 556.544 563.378 C 555.518 562.985, 555 560.873, 554.794 556.239 C 554.524 550.202, 553.438 547.896, 551.688 549.646 M 422.487 552.250 C 421.588 554.300, 420.940 554.469, 415.200 554.155 L 408.900 553.810 409.200 560.076 C 409.386 563.971, 409.973 566.497, 410.750 566.754 C 411.611 567.038, 412 565.918, 412 563.155 C 412 559.142, 414.287 555.441, 416.081 556.550 C 416.586 556.862, 417 559.090, 417 561.500 C 417 566.044, 418.578 568.276, 420.096 565.878 C 420.577 565.120, 420.976 562.561, 420.985 560.191 C 420.994 557.576, 421.393 556.125, 422 556.500 C 422.550 556.840, 423 558.901, 423 561.080 C 423 564.324, 423.448 565.247, 425.470 566.168 C 427.301 567.003, 428.292 567.003, 429.297 566.168 C 430.306 565.331, 431.489 565.358, 433.912 566.271 C 436.957 567.419, 437.330 567.315, 439.586 564.694 C 442.393 561.431, 442.608 559.313, 440.443 556.223 C 439.366 554.685, 437.864 554, 435.566 554 C 431.626 554, 429.667 556.010, 429.667 560.053 C 429.667 562.244, 429.196 563, 427.833 563 C 425.025 563, 425.291 557.419, 428.135 556.675 C 430.198 556.136, 430.166 556.012, 427.212 553.058 C 425.530 551.376, 424.001 550, 423.814 550 C 423.627 550, 423.030 551.013, 422.487 552.250 M 486.250 552.708 C 485.416 554.503, 485.333 555.733, 486 556.400 C 486.550 556.950, 487 559.120, 487 561.221 C 487 564.356, 487.463 565.254, 489.572 566.215 C 491.597 567.137, 492.313 567.111, 492.944 566.090 C 493.553 565.106, 494.240 565.058, 495.800 565.893 C 498.079 567.113, 500.992 566.414, 501.015 564.643 C 501.024 563.959, 501.381 564.054, 501.904 564.878 C 504.423 568.856, 506.089 561.485, 503.804 556.470 C 502.744 554.142, 502.094 553.868, 498.054 554.052 C 491.072 554.368, 490.184 554.155, 489.500 552 C 488.643 549.299, 487.742 549.495, 486.250 552.708 M 565 552.500 C 565 553.325, 564.325 554, 563.500 554 C 561.861 554, 561.433 555.631, 562.932 556.167 C 563.444 556.350, 564.057 558.460, 564.292 560.855 C 564.723 565.228, 566.091 566.956, 569.143 566.985 C 570.844 567.001, 572.316 564.650, 571.264 563.598 C 570.936 563.269, 569.842 563, 568.833 563 C 567.463 563, 567 562.242, 567 560 C 567 557.673, 567.446 557, 568.987 557 C 571.432 557, 574.202 563.036, 573.786 567.458 C 573.583 569.623, 573.933 570.500, 575 570.500 C 575.825 570.500, 576.516 570.050, 576.535 569.500 C 576.555 568.950, 577.102 567.547, 577.750 566.381 C 578.399 565.216, 578.645 563.979, 578.298 563.631 C 577.951 563.284, 578.120 563, 578.673 563 C 579.890 563, 582.588 555.255, 581.686 554.353 C 580.917 553.584, 577.852 555.952, 578.422 556.874 C 578.643 557.231, 578.228 558.335, 577.501 559.330 C 576.285 560.992, 576.076 560.851, 574.889 557.569 C 573.596 553.995, 571.609 552.904, 570.662 555.250 C 570.259 556.250, 570.142 556.250, 570.079 555.250 C 570.036 554.563, 569.052 554, 567.893 554 C 566.431 554, 565.962 553.541, 566.362 552.500 C 566.678 551.675, 566.501 551, 565.969 551 C 565.436 551, 565 551.675, 565 552.500 M 261.517 554 L 256.534 554.500 256.680 560.330 C 256.760 563.536, 257.114 566.448, 257.467 566.801 C 258.494 567.827, 260.007 564.671, 259.410 562.750 C 258.597 560.138, 259.816 557.281, 261.985 556.714 C 263.667 556.274, 263.940 556.846, 264.201 561.356 C 264.420 565.129, 264.900 566.500, 266 566.500 C 267.032 566.500, 267.656 565.120, 268 562.078 C 268.642 556.398, 270.994 555.298, 271.015 560.667 C 271.046 568.370, 274.572 569.140, 275.183 561.577 C 275.610 556.287, 277.995 555.520, 278.015 560.667 C 278.033 565.047, 279.263 567.574, 280.888 566.569 C 282.124 565.805, 282.389 557.159, 281.232 555.342 C 280.396 554.027, 268.987 553.250, 261.517 554 M 289.338 554.562 C 289.090 555.209, 289.024 558.160, 289.193 561.119 C 289.420 565.099, 289.891 566.500, 291 566.500 C 292.080 566.500, 292.585 565.170, 292.805 561.750 C 293.054 557.866, 293.454 557, 295 557 C 296.546 557, 296.946 557.866, 297.195 561.750 C 297.624 568.429, 299.500 567.208, 299.500 560.250 L 299.500 554.500 294.645 553.942 C 291.386 553.568, 289.641 553.772, 289.338 554.562 M 191.643 554.690 C 190.428 555.905, 190.981 564.739, 192.342 565.869 C 194.225 567.432, 195 566.273, 195 561.892 C 195 557.428, 195.938 556.682, 201.683 556.578 C 206.600 556.489, 207.409 557.468, 203.126 558.325 C 199.660 559.018, 198.764 560.893, 200.364 564.107 C 201.275 565.936, 202.434 566.535, 205.284 566.650 C 208.498 566.780, 209.100 566.451, 209.649 564.263 C 209.999 562.867, 209.884 560.100, 209.393 558.113 L 208.500 554.500 200.393 554.274 C 195.934 554.149, 191.997 554.337, 191.643 554.690 M 212.202 560.250 C 212.547 567.496, 214.270 568.573, 215 562 C 215.409 558.318, 215.899 557.443, 217.693 557.188 C 219.655 556.909, 219.918 557.381, 220.193 561.688 C 220.362 564.335, 220.950 566.500, 221.500 566.500 C 222.685 566.500, 223.390 559.690, 222.551 556.345 C 222.031 554.274, 221.375 554, 216.933 554 L 211.905 554 212.202 560.250 M 244.200 555.200 C 240.909 558.491, 244.319 567, 248.929 567 C 253.416 567, 256.263 560.577, 253.587 556.493 C 251.789 553.748, 246.395 553.005, 244.200 555.200 M 302.592 556.171 C 299.527 560.548, 301.362 564.609, 307.049 566.036 L 310.500 566.902 306.594 566.701 C 301.972 566.463, 300.671 568.437, 304.348 570.113 C 307.915 571.738, 311.876 570.456, 313.081 567.286 C 313.637 565.825, 313.959 562.350, 313.796 559.564 L 313.500 554.500 308.842 554.199 C 304.939 553.947, 303.927 554.266, 302.592 556.171 M 335.202 560.250 C 335.488 566.253, 337.193 568.593, 337.780 563.790 C 338.406 558.670, 339.098 557.104, 341.002 556.499 C 344.385 555.426, 343.216 554, 338.952 554 L 334.905 554 335.202 560.250 M 343.446 556.442 C 341.292 559.730, 341.928 562.874, 345.248 565.343 C 347.458 566.987, 348.535 567.198, 350.748 566.420 C 355.018 564.918, 354.327 562.428, 349.750 562.828 C 347.532 563.022, 346 562.716, 346 562.078 C 346 561.485, 347.589 561, 349.531 561 C 353.513 561, 354.749 559.268, 353.042 556.078 C 351.389 552.990, 345.563 553.211, 343.446 556.442 M 355.714 554.620 C 354.162 556.171, 355.170 557.006, 358.750 557.136 C 361.514 557.237, 361.843 557.393, 360 557.732 C 356.528 558.370, 355 559.847, 355 562.563 C 355 565.446, 356.411 566.353, 361.279 566.602 L 365.090 566.796 364.795 560.648 L 364.500 554.500 360.464 554.203 C 358.244 554.040, 356.106 554.227, 355.714 554.620 M 367.892 554.750 C 367.557 557.077, 367.906 566.239, 368.346 566.680 C 369.696 568.029, 371 565.454, 371 561.441 C 371 557.667, 371.300 557, 373 557 C 374.738 557, 375 557.667, 375 562.083 C 375 568.691, 377.370 568.344, 377.805 561.672 C 378.056 557.815, 378.449 557, 380.055 557 C 381.727 557, 382 557.714, 382 562.083 C 382 565.702, 382.360 567.048, 383.250 566.756 C 384.654 566.295, 385.449 559.927, 384.551 556.345 C 383.995 554.130, 383.520 554, 375.981 554 C 371.591 554, 367.951 554.337, 367.892 554.750 M 387.135 555.747 C 385.876 558.101, 386.794 559.591, 390.331 560.936 C 391.865 561.519, 392.841 562.448, 392.499 563.001 C 392.089 563.665, 391.185 563.634, 389.832 562.910 C 386.824 561.300, 384.900 563.458, 387.554 565.464 C 390.269 567.518, 393.373 567.351, 395.466 565.037 C 397.765 562.497, 396.845 560.270, 392.765 558.497 C 389.416 557.042, 389.713 556.630, 393.862 556.976 C 395.441 557.107, 396.078 556.729, 395.785 555.836 C 395.543 555.101, 393.722 554.362, 391.738 554.194 C 389.039 553.964, 387.880 554.355, 387.135 555.747 M 468.178 555.222 C 465.038 558.362, 467.696 565.166, 472.500 566.283 C 473.600 566.539, 473.046 566.609, 471.268 566.440 C 469.491 566.270, 467.758 566.582, 467.418 567.132 C 466.534 568.564, 470.037 570.931, 473.095 570.968 C 477.363 571.021, 479 568.202, 479 560.802 L 479 554.261 474.178 554.153 C 471.526 554.093, 468.826 554.574, 468.178 555.222 M 519 559.893 C 519 564.296, 519.392 565.937, 520.552 566.382 C 521.442 566.723, 521.843 566.555, 521.493 565.989 C 521.157 565.445, 521.359 565, 521.941 565 C 522.523 565, 523 563.362, 523 561.360 C 523 559.049, 523.638 557.254, 524.748 556.442 C 527.081 554.736, 525.448 553.239, 522.955 554.796 C 521.781 555.529, 521 555.614, 521 555.008 C 521 554.454, 520.550 554, 520 554 C 519.446 554, 519 556.631, 519 559.893 M 528.200 555.200 C 527.540 555.860, 527 558.100, 527 560.177 C 527 565.002, 530.616 567.873, 534.827 566.392 C 539.035 564.912, 538.284 562.431, 533.750 562.828 C 531.532 563.022, 530 562.716, 530 562.078 C 530 561.485, 531.800 561, 534 561 C 537.284 561, 538 560.655, 538 559.071 C 538 554.873, 531.209 552.191, 528.200 555.200 M 539.323 555.286 C 539.021 555.775, 539.246 556.646, 539.822 557.222 C 540.552 557.952, 540.414 558.965, 539.365 560.565 C 537.985 562.672, 538.038 563.038, 540.008 565.008 C 541.378 566.378, 542.759 566.906, 543.827 566.468 C 544.747 566.090, 546.400 565.718, 547.500 565.641 C 549.053 565.531, 549.569 564.672, 549.808 561.792 C 550.290 555.986, 548.654 553.880, 543.881 554.162 C 541.676 554.292, 539.625 554.798, 539.323 555.286 M 247.122 557.278 C 244.756 559.644, 246.734 564.423, 249.622 563.315 C 250.380 563.024, 251 561.532, 251 560 C 251 556.963, 248.906 555.494, 247.122 557.278 M 325.588 557.312 C 323.262 559.013, 323.885 562.500, 326.514 562.500 C 327.841 562.500, 328.611 561.716, 328.835 560.135 C 329.286 556.948, 327.823 555.677, 325.588 557.312 M 433.991 557.511 C 432.301 559.548, 433.202 562.500, 435.514 562.500 C 436.913 562.500, 437.590 561.725, 437.804 559.878 C 438.155 556.850, 435.769 555.369, 433.991 557.511 M 490.657 556.707 C 489.326 557.050, 488.975 557.782, 489.394 559.341 C 489.712 560.529, 489.979 561.837, 489.986 562.250 C 490.017 563.936, 492.877 562.837, 494.363 560.569 C 495.239 559.231, 496.979 557.943, 498.228 557.706 C 499.747 557.418, 499.574 557.340, 497.706 557.471 C 496.169 557.578, 494.680 557.292, 494.397 556.833 C 493.854 555.955, 493.605 555.947, 490.657 556.707 M 305.362 558.500 C 304.663 560.322, 305.577 563, 306.897 563 C 308.623 563, 310.928 559.977, 310.351 558.471 C 309.614 556.551, 306.102 556.572, 305.362 558.500 M 452 560 C 452 562.683, 452.327 563.093, 454.250 562.820 C 455.898 562.585, 456.500 561.831, 456.500 560 C 456.500 558.169, 455.898 557.415, 454.250 557.180 C 452.327 556.907, 452 557.317, 452 560 M 470.591 558.625 C 470.198 559.649, 470.579 560.997, 471.524 561.928 C 472.979 563.359, 473.253 563.324, 474.575 561.540 C 476.389 559.093, 475.947 557.589, 473.299 557.197 C 472.081 557.017, 470.986 557.594, 470.591 558.625 M 542.694 561.639 C 542.342 561.991, 542.282 562.647, 542.559 563.096 C 543.183 564.105, 546 563.120, 546 561.893 C 546 560.867, 543.647 560.686, 542.694 561.639" stroke="none" fill="#081a14" fill-rule="evenodd"/></svg>